<svg xmlns="http://www.w3.org/2000/svg" width="560" height="320" viewBox="0 0 560 320" role="img" aria-labelledby="title desc"><title id="title">Mainframe Dark Bento token study</title><desc id="desc">BoxSpec-generated preview, not a source screenshot.</desc><rect width="560" height="320" rx="20" fill="#0B0D10"/><rect x="20" y="20" width="520" height="280" rx="16" fill="#0B0D10" stroke="#2C323B"/><circle cx="42" cy="44" r="6" fill="#8DE9FF"/><text x="58" y="50" fill="#F6F7F9" font-family="system-ui, sans-serif" font-size="16" font-weight="700">Mainframe Dark Bento</text><text x="34" y="87" fill="#A8B0BC" font-family="system-ui, sans-serif" font-size="12">dark · bento · minimal</text><rect x="34" y="106" width="150" height="158" rx="12" fill="#12151A" stroke="#2C323B"/><rect x="198" y="106" width="328" height="74" rx="12" fill="#12151A" stroke="#2C323B"/><rect x="198" y="194" width="154" height="70" rx="12" fill="#12151A" stroke="#2C323B"/><rect x="366" y="194" width="160" height="70" rx="12" fill="#12151A" stroke="#2C323B"/><path d="M222 156 L258 138 L296 148 L334 123 L376 142 L418 119 L496 151" fill="none" stroke="#8DE9FF" stroke-width="5"/><rect x="34" y="282" width="46" height="6" rx="3" fill="#F6F7F9"/><rect x="88" y="282" width="46" height="6" rx="3" fill="#8DE9FF"/><text x="526" y="288" text-anchor="end" fill="#A8B0BC" font-family="system-ui, sans-serif" font-size="10">GENERATED STUDY</text></svg>
