<svg xmlns="http://www.w3.org/2000/svg" width="560" height="320" viewBox="0 0 560 320" role="img" aria-labelledby="title desc"><title id="title">Spectrum Creative Neutral token study</title><desc id="desc">BoxSpec-generated preview, not a source screenshot.</desc><rect width="560" height="320" rx="20" fill="#F8F8F8"/><rect x="20" y="20" width="520" height="280" rx="16" fill="#F8F8F8" stroke="#D5D5D5"/><circle cx="42" cy="44" r="6" fill="#1473E6"/><text x="58" y="50" fill="#2C2C2C" font-family="system-ui, sans-serif" font-size="16" font-weight="700">Spectrum Creative Neutral</text><text x="34" y="87" fill="#667085" font-family="system-ui, sans-serif" font-size="12">creative · neutral · professional</text><rect x="34" y="106" width="150" height="158" rx="6" fill="#FFFFFF" stroke="#D5D5D5"/><rect x="198" y="106" width="328" height="74" rx="6" fill="#FFFFFF" stroke="#D5D5D5"/><rect x="198" y="194" width="154" height="70" rx="6" fill="#FFFFFF" stroke="#D5D5D5"/><rect x="366" y="194" width="160" height="70" rx="6" fill="#FFFFFF" stroke="#D5D5D5"/><path d="M222 156 L258 138 L296 148 L334 123 L376 142 L418 119 L496 151" fill="none" stroke="#1473E6" stroke-width="5"/><rect x="34" y="282" width="46" height="6" rx="3" fill="#2C2C2C"/><rect x="88" y="282" width="46" height="6" rx="3" fill="#1473E6"/><text x="526" y="288" text-anchor="end" fill="#667085" font-family="system-ui, sans-serif" font-size="10">GENERATED STUDY</text></svg>
